<?xml version="1.0" encoding="UTF-8"?><svg id="Layer_4" xmlns="http://www.w3.org/2000/svg" viewBox="0 0 754 235.91"><defs><style>.cls-1{fill:#33352c;}.cls-2{fill:#3d4c1c;}</style></defs><polygon class="cls-1" points="343.04 78.88 291.48 0 277.96 0 277.96 101.99 291.48 101.99 291.48 23.33 342.83 101.99 356.42 101.99 356.42 0 343.04 0 343.04 78.88"/><path class="cls-1" d="m436,85.46v-35.31c0-5.65-1.2-10.35-3.61-14.12-2.41-3.76-5.72-6.57-9.95-8.44-4.23-1.87-9.09-2.8-14.6-2.8-4.58,0-8.72.64-12.43,1.93-3.71,1.28-6.89,3.01-9.53,5.18-2.64,2.17-4.66,4.59-6.06,7.25-1.4,2.66-2.1,5.35-2.1,8.06h12.96c0-2.1.69-4.06,2.07-5.88,1.38-1.82,3.29-3.29,5.74-4.41,2.45-1.12,5.31-1.68,8.58-1.68,3.5,0,6.44.61,8.83,1.82,2.38,1.21,4.17,2.93,5.36,5.15,1.19,2.22,1.79,4.82,1.79,7.81v6.02h-12.82c-5.18,0-9.88.54-14.08,1.61s-7.8,2.65-10.79,4.73c-2.99,2.08-5.28,4.67-6.86,7.78-1.59,3.11-2.38,6.69-2.38,10.75s1.06,8,3.19,11.38c2.12,3.39,5.12,6.08,8.97,8.09,3.85,2.01,8.35,3.01,13.49,3.01,4.11,0,7.81-.71,11.1-2.14,3.29-1.42,6.14-3.22,8.55-5.4.7-.63,1.35-1.28,1.97-1.93.08.68.13,1.35.24,2.07.37,2.5.89,4.5,1.54,5.99h13.52v-1.12c-.89-2.05-1.55-4.51-2-7.36-.45-2.85-.67-5.53-.67-8.06Zm-21.86,4.06c-3.04,1.68-6.54,2.52-10.51,2.52-3.18,0-5.85-.57-8.02-1.72-2.17-1.14-3.8-2.7-4.87-4.66-1.07-1.96-1.61-4.13-1.61-6.51s.51-4.38,1.54-6.13c1.03-1.75,2.52-3.21,4.48-4.38s4.39-2.04,7.29-2.63c2.9-.58,6.19-.87,9.88-.87h10.72v15.49c-.44.9-.97,1.8-1.65,2.72-1.8,2.43-4.22,4.48-7.25,6.16Z"/><path class="cls-1" d="m485.7,91.94c-1.19.21-2.32.32-3.4.32-1.45,0-2.8-.21-4.06-.63s-2.29-1.28-3.08-2.59-1.19-3.25-1.19-5.81v-47.07h14.15v-9.95h-14.15V7.78h-12.96v18.42h-13.87v9.95h13.87v47c0,5.04.78,9.05,2.35,12.01,1.56,2.97,3.68,5.08,6.34,6.34,2.66,1.26,5.58,1.89,8.76,1.89,2.34,0,4.33-.15,5.99-.45,1.66-.31,3-.62,4.03-.95l-.07-10.58c-.61.14-1.51.32-2.7.52Z"/><path class="cls-1" d="m549.69,81.25c-1.44,3.3-3.64,5.97-6.65,7.96-3.22,2.12-7.59,3.19-13.1,3.19-1.77,0-3.49-.26-5.15-.77-1.66-.51-3.15-1.41-4.48-2.7-1.33-1.28-2.38-3.04-3.15-5.26-.77-2.22-1.16-5.03-1.16-8.44V26.2h-12.96v48.89c0,5.04.6,9.36,1.79,12.96,1.19,3.6,2.88,6.51,5.08,8.76,2.19,2.24,4.82,3.9,7.88,4.97,3.06,1.07,6.43,1.61,10.12,1.61,5.42,0,10.02-.87,13.8-2.63,3.37-1.56,6.12-3.69,8.34-6.34l.27,7.57h12.4V26.2h-13.03v55.05Z"/><path class="cls-1" d="m690.63,61.92c0-5.32-.61-10.24-1.82-14.74s-3.08-8.43-5.6-11.77c-2.52-3.34-5.76-5.94-9.7-7.81-3.95-1.87-8.63-2.8-14.04-2.8-4.25,0-8.36.86-12.33,2.59-3.97,1.73-7.52,4.27-10.65,7.64-3.13,3.36-5.6,7.46-7.43,12.29-1.82,4.83-2.73,10.33-2.73,16.5v2.94c0,5.32.82,10.23,2.45,14.71,1.63,4.48,3.98,8.36,7.04,11.63,3.06,3.27,6.72,5.8,11,7.6,4.27,1.8,9.05,2.7,14.32,2.7,5,0,9.33-.7,13-2.1,3.66-1.4,6.76-3.22,9.28-5.46s4.6-4.6,6.23-7.08l-7.85-6.23c-2.38,3.13-5.16,5.63-8.34,7.5s-7.05,2.8-11.63,2.8c-3.55,0-6.71-.68-9.49-2.03s-5.14-3.22-7.07-5.6c-1.94-2.38-3.41-5.15-4.41-8.3-.91-2.86-1.39-5.92-1.47-9.14h51.24v-5.81Zm-12.96-4.76h-37.92c.24-1.94.6-3.77,1.07-5.46.98-3.5,2.36-6.47,4.13-8.9,1.77-2.43,3.9-4.26,6.37-5.5,2.48-1.24,5.18-1.86,8.13-1.86,4.44,0,7.94,1.03,10.51,3.08,2.57,2.05,4.45,4.67,5.64,7.85,1.19,3.18,1.88,6.44,2.07,9.81v.98Z"/><path class="cls-1" d="m331.18,155.37c1.17-4.44,2.91-8.24,5.22-11.42,2.31-3.18,5.18-5.63,8.61-7.36,3.43-1.73,7.41-2.59,11.94-2.59,5.28,0,9.55.93,12.82,2.8,3.27,1.87,5.79,4.52,7.57,7.95,1.77,3.43,2.99,7.53,3.64,12.29h13.45c-.7-6.72-2.53-12.64-5.5-17.76-2.97-5.12-7.11-9.12-12.43-12.01-5.32-2.9-11.84-4.34-19.54-4.34-6.3,0-11.98,1.12-17.02,3.36-5.04,2.24-9.35,5.44-12.92,9.6-3.57,4.16-6.3,9.14-8.2,14.95-1.89,5.82-2.84,12.29-2.84,19.44v10.16c0,7.15.95,13.63,2.84,19.44,1.89,5.82,4.59,10.79,8.09,14.92,3.5,4.13,7.69,7.32,12.57,9.56,4.88,2.24,10.31,3.36,16.29,3.36,8.17,0,14.99-1.48,20.45-4.45,5.46-2.96,9.69-6.99,12.68-12.08,2.99-5.09,4.83-10.86,5.53-17.3h-13.45c-.75,4.76-2,8.85-3.75,12.26-1.75,3.41-4.33,6.02-7.74,7.85-3.41,1.82-7.99,2.73-13.73,2.73-4.53,0-8.45-.94-11.77-2.84-3.32-1.89-6.05-4.49-8.2-7.81-2.15-3.32-3.75-7.17-4.8-11.56-1.05-4.39-1.58-9.08-1.58-14.08v-10.3c0-5.42.58-10.34,1.75-14.78Z"/><path class="cls-1" d="m441.72,149.13c-4.11,0-7.65.87-10.61,2.63-2.97,1.75-5.4,4.18-7.32,7.29-.03.05-.06.12-.09.17l-.26-8.68h-12.61v75.79h12.96v-53.8c.89-2.14,2.08-4.02,3.57-5.6,1.59-1.68,3.53-2.99,5.81-3.92s4.93-1.4,7.92-1.4c1.21,0,2.3.03,3.26.11.96.07,1.97.22,3.05.45l.07-12.05c-.47-.23-1.31-.45-2.52-.67-1.21-.21-2.29-.31-3.22-.31Z"/><path class="cls-1" d="m511.63,159.75c-2.52-3.34-5.76-5.94-9.7-7.81-3.95-1.87-8.63-2.8-14.04-2.8-4.25,0-8.36.86-12.33,2.59s-7.52,4.27-10.65,7.64c-3.13,3.36-5.6,7.46-7.43,12.29-1.82,4.83-2.73,10.33-2.73,16.5v2.94c0,5.32.82,10.23,2.45,14.71,1.63,4.48,3.98,8.36,7.04,11.63,3.06,3.27,6.72,5.8,11,7.6,4.27,1.8,9.05,2.7,14.32,2.7,5,0,9.33-.7,13-2.1,3.66-1.4,6.76-3.22,9.28-5.46,2.52-2.24,4.6-4.6,6.23-7.08l-7.85-6.23c-2.38,3.13-5.16,5.63-8.34,7.5-3.18,1.87-7.05,2.8-11.63,2.8-3.55,0-6.71-.68-9.49-2.03s-5.14-3.22-7.07-5.6c-1.94-2.38-3.41-5.15-4.41-8.3-.91-2.86-1.39-5.92-1.47-9.14h51.24v-5.81c0-5.32-.61-10.24-1.82-14.74s-3.08-8.43-5.6-11.77Zm-5.53,21.75h-37.92c.24-1.94.6-3.77,1.07-5.46.98-3.5,2.36-6.47,4.13-8.9,1.77-2.43,3.9-4.26,6.37-5.5,2.48-1.24,5.18-1.86,8.13-1.86,4.44,0,7.94,1.03,10.51,3.08,2.57,2.05,4.45,4.67,5.64,7.85,1.19,3.18,1.88,6.44,2.07,9.81v.98Z"/><path class="cls-1" d="m616.52,25.11c-1.21-.21-2.29-.31-3.22-.31-4.11,0-7.65.87-10.61,2.63-2.97,1.75-5.4,4.18-7.32,7.29-.03.05-.06.12-.09.17l-.26-8.68h-12.61l-.45,131.96c-2.39-2.81-5.21-5.01-8.51-6.54-3.57-1.66-7.74-2.49-12.5-2.49s-8.63.92-12.29,2.77c-3.67,1.84-6.82,4.47-9.46,7.88-2.64,3.41-4.67,7.48-6.09,12.22-1.43,4.74-2.14,10.01-2.14,15.8v1.47c0,5.51.71,10.61,2.14,15.31,1.42,4.69,3.45,8.77,6.09,12.22,2.64,3.46,5.79,6.14,9.46,8.06,3.66,1.91,7.72,2.87,12.15,2.87,4.81,0,9.01-.83,12.61-2.49,3.55-1.64,6.56-4,9.05-7.07l.62,8.16h11.91l.38-178.14c.89-2.14,2.08-4.02,3.57-5.6,1.59-1.68,3.53-2.99,5.81-3.92s4.93-1.4,7.92-1.4c1.21,0,2.3.03,3.26.11.96.07,1.97.22,3.05.45l.07-12.05c-.47-.23-1.31-.45-2.52-.67Zm-34.56,180.46c-.21.4-.41.82-.63,1.21-1.68,2.99-3.91,5.39-6.69,7.22-2.78,1.82-6.32,2.73-10.61,2.73-3.5,0-6.51-.71-9.04-2.14-2.52-1.42-4.6-3.4-6.23-5.92-1.63-2.52-2.84-5.44-3.61-8.76-.77-3.32-1.16-6.86-1.16-10.65v-1.47c0-3.78.38-7.34,1.16-10.68.77-3.34,1.97-6.28,3.61-8.83,1.63-2.55,3.72-4.55,6.27-6.02,2.55-1.47,5.59-2.21,9.14-2.21,3.27,0,6.11.56,8.51,1.68s4.44,2.63,6.1,4.52c1.23,1.4,2.29,2.95,3.19,4.64v34.68Z"/><rect class="cls-1" x="616.14" y="150.53" width="13.03" height="75.79"/><path class="cls-1" d="m622.8,122.93c-2.52,0-4.43.72-5.71,2.17-1.29,1.45-1.93,3.22-1.93,5.32s.64,3.73,1.93,5.15c1.28,1.43,3.19,2.14,5.71,2.14s4.38-.71,5.71-2.14c1.33-1.42,2-3.14,2-5.15s-.66-3.88-2-5.32c-1.33-1.45-3.23-2.17-5.71-2.17Z"/><path class="cls-1" d="m679.29,216.27c-1.19.21-2.32.32-3.4.32-1.45,0-2.8-.21-4.06-.63s-2.29-1.28-3.08-2.59c-.79-1.31-1.19-3.25-1.19-5.81v-47.07h14.15v-9.95h-14.15v-18.42h-12.96v18.42h-13.87v9.95h13.87v47c0,5.04.78,9.05,2.35,12.01,1.56,2.97,3.68,5.08,6.34,6.34,2.66,1.26,5.58,1.89,8.76,1.89,2.34,0,4.33-.15,5.99-.45,1.66-.31,3-.62,4.03-.95l-.07-10.58c-.61.14-1.51.32-2.7.52Z"/><path class="cls-1" d="m751.06,194.87c-1.96-2.85-4.95-5.25-8.97-7.22-4.02-1.96-9.13-3.64-15.34-5.04-3.55-.79-6.47-1.59-8.76-2.38-2.29-.79-4.06-1.65-5.32-2.56-1.26-.91-2.14-1.91-2.63-3.01-.49-1.1-.73-2.35-.73-3.75,0-1.87.5-3.64,1.51-5.32,1-1.68,2.61-3.07,4.83-4.17,2.22-1.1,5.13-1.65,8.72-1.65,3.41,0,6.29.65,8.65,1.96,2.36,1.31,4.16,2.95,5.4,4.94,1.24,1.99,1.86,4.03,1.86,6.13h12.96c0-4.34-1.14-8.3-3.43-11.87-2.29-3.57-5.58-6.43-9.88-8.58-4.3-2.15-9.48-3.22-15.55-3.22-4.25,0-8.1.58-11.56,1.75s-6.41,2.78-8.86,4.83c-2.45,2.05-4.34,4.41-5.68,7.08-1.33,2.66-2,5.49-2,8.48s.63,5.86,1.89,8.2,3.07,4.37,5.43,6.09c2.36,1.73,5.23,3.2,8.62,4.41,3.38,1.21,7.18,2.26,11.38,3.15,5,.98,8.74,2.14,11.24,3.47,2.5,1.33,4.16,2.8,4.98,4.41.82,1.61,1.23,3.35,1.23,5.22,0,2.1-.63,3.97-1.89,5.6s-3.09,2.92-5.5,3.85c-2.41.93-5.38,1.4-8.93,1.4-2.66,0-5.35-.43-8.06-1.3s-5-2.34-6.86-4.41c-1.87-2.08-2.9-4.89-3.08-8.44h-13.03c0,4.2,1.19,8.2,3.57,11.98s5.88,6.86,10.51,9.25c4.62,2.38,10.27,3.57,16.95,3.57,4.44,0,8.44-.55,12.01-1.65,3.57-1.1,6.65-2.64,9.25-4.62,2.59-1.98,4.58-4.35,5.95-7.11,1.38-2.76,2.07-5.79,2.07-9.11,0-4.06-.98-7.52-2.94-10.37Z"/><path class="cls-1" d="m230.36,80.28s-30.79-2.61-45.73,1.71c-1,.29-4.96-14.66-29.24-30.03-11.13-7.04-24.45-10.04-37.7-10.04s-26.53,3.54-38.02,10.22c-11.16,6.5-20.54,15.8-27.13,26.91l-2.25,3.8-4.35-.78c-7.8-1.41-15.81-2.12-23.8-2.12-2.06,0-4.18.05-6.31.15l-10.22.48,4.09-9.38c9.08-20.83,23.9-38.52,42.86-51.17C72,7.05,94.68.19,118.14.19s46.84,7.07,66.49,20.45c19.17,13.06,33.97,31.24,42.81,52.6l2.91,7.04Zm-204.53-13.01c6.07.15,12.13.68,18.1,1.57,7.51-11.33,17.58-20.85,29.34-27.69,13.43-7.82,28.79-11.95,44.42-11.95s30.71,4.06,44.05,11.74c11.74,6.76,21.22,15.28,28.77,26.51,3.92-.39,16.94-1,19.58-.82-8-14.72-18.62-25.93-32.63-35.47-17.52-11.93-38.03-18.24-59.32-18.24s-41.17,6.12-58.51,17.69c-14.11,9.42-25.66,21.97-33.8,36.66Z"/><path class="cls-1" d="m234.59,99.58l-.72-4.48-4.47-.76c-5.44-.92-11.01-1.45-16.55-1.56-3.38-.07-6.77.02-10.13.25,0,0-5.74.54-5.74.54l-6.87,1.05c-4.92.91-9.77,2.15-14.51,3.71,0,0-8.98,3.44-11.93,4.69-12.41,5.3-23.31,13.4-32.92,23.1l-3.75,3.78,3.09,4.34c1.19,1.67,2.37,3.41,3.49,5.15l.05.07c4.71,7.11,8.74,14.7,11.99,22.55,3.55,8.6,6.19,17.6,7.85,26.75v.03c1.41,7.79,2.13,15.78,2.13,23.75,0,2.61-.08,5.28-.24,7.93l-.6,10.15,9.37-3.95c21.06-8.87,38.98-23.6,51.82-42.58,13.17-19.46,20.13-42.22,20.13-65.8,0-6.26-.5-12.56-1.48-18.71Zm-41.99,7.45s0,.06.01.09c.05.39.11.79.15,1.18,0,.06.01.11.02.17.04.34.08.68.11,1.02.01.13.03.26.04.39.03.28.05.55.08.83.01.13.02.26.03.4.03.31.05.62.07.94,0,.09.01.17.02.26.03.39.05.79.07,1.18,0,.1,0,.21.01.31.01.3.03.59.04.89,0,.13,0,.27.01.4,0,.28.02.56.02.85,0,.12,0,.25,0,.37,0,.4.01.8.01,1.19,0,13.29-3.51,26.36-10.15,37.78-.27.47-.56.94-.84,1.4-.07.11-.14.22-.21.33-.28.46-.57.92-.87,1.37-.03.04-.05.08-.08.12-.27.42-.55.84-.84,1.26-.07.11-.14.21-.22.32-.3.44-.61.88-.93,1.32-.04.06-.09.12-.14.19-.28.39-.57.77-.86,1.16-.07.1-.15.2-.22.3-.32.42-.65.85-.98,1.26-.06.08-.12.15-.18.23-.29.37-.59.73-.89,1.09-.07.09-.15.18-.22.26-.34.41-.69.81-1.04,1.21-.07.08-.15.17-.22.25-.31.35-.62.7-.94,1.04-.07.08-.14.15-.21.23-.36.39-.73.78-1.1,1.16-.08.09-.17.17-.25.26-.33.34-.67.68-1.01,1.01-.06.06-.12.12-.18.18-.38.38-.77.75-1.16,1.11-.09.09-.18.17-.27.26-.36.34-.73.67-1.1,1-.04.04-.09.08-.13.12-.4.36-.81.71-1.22,1.06-.1.08-.2.17-.29.25-.4.34-.81.68-1.22,1.01-.02.01-.03.02-.05.04-.42.34-.85.68-1.28,1.01-.05.04-.1.08-.16.12-1.33-5.3-2.96-10.52-4.87-15.63.01-.01.03-.03.04-.04.33-.3.66-.6.98-.9.05-.05.11-.1.16-.15.32-.3.63-.6.94-.91.05-.05.11-.1.16-.16.31-.31.62-.62.92-.94.04-.04.08-.09.12-.13.31-.33.63-.66.93-1,.02-.02.03-.03.05-.05.31-.34.61-.68.91-1.03.02-.02.04-.05.06-.07.29-.34.58-.69.87-1.03.04-.05.08-.1.12-.14.28-.34.55-.68.82-1.02.04-.06.09-.11.13-.17.27-.34.53-.69.79-1.04.04-.05.08-.11.12-.16.26-.36.52-.72.78-1.08.02-.04.05-.07.07-.11.27-.38.53-.77.79-1.15,0,0,0,0,0,0,.26-.39.5-.77.75-1.17.03-.04.05-.08.08-.12.23-.37.46-.75.69-1.13.03-.06.07-.11.1-.17.22-.37.43-.75.65-1.12.03-.06.07-.12.1-.18.21-.38.42-.76.62-1.15.03-.05.05-.1.08-.15.21-.4.41-.8.61-1.21,0-.02.02-.04.03-.06.2-.41.4-.82.59-1.24.01-.03.02-.05.04-.08.19-.41.37-.82.55-1.23.02-.06.05-.11.07-.17.17-.4.34-.8.5-1.2.03-.07.05-.13.08-.2.16-.4.32-.8.47-1.21.02-.06.05-.13.07-.19.15-.41.3-.83.44-1.24.02-.04.03-.09.05-.13.15-.44.29-.88.43-1.32,0,0,0,0,0,0,.14-.44.27-.88.4-1.33.01-.05.03-.1.04-.15.12-.42.24-.85.35-1.27.02-.07.04-.14.05-.21.11-.42.21-.84.31-1.26.02-.07.03-.15.05-.22.1-.42.19-.85.28-1.28.01-.06.03-.12.04-.19.09-.44.18-.88.26-1.33,0-.03.01-.06.02-.09.08-.45.15-.89.22-1.34,0-.03.01-.07.02-.1.07-.45.13-.89.19-1.34,0-.06.02-.13.03-.19.05-.43.1-.87.15-1.31,0-.08.02-.15.02-.23.04-.43.08-.87.12-1.31,0-.07.01-.15.02-.22.03-.45.06-.89.08-1.34,0-.05,0-.1,0-.16.02-.47.04-.94.05-1.42,0-.33.01-.66.02-.98,0-.1,0-.21,0-.31,0-.23,0-.45,0-.68,0-.12,0-.24,0-.36,0-.22,0-.43-.01-.65,0-.12,0-.23,0-.35,0-.24-.02-.47-.03-.71,0-.09,0-.18-.01-.27-.02-.33-.03-.65-.06-.98,0-.06,0-.12-.01-.18-.02-.27-.04-.54-.06-.8,0-.11-.02-.22-.03-.33-.02-.22-.04-.44-.06-.65-.01-.12-.02-.24-.04-.36-.02-.22-.05-.43-.07-.65,0-.07-.02-.15-.02-.22,4.75-1.64,9.61-2.92,14.56-3.83Zm-26.83,9.02c0,.05,0,.11,0,.16,0,.06,0,.12,0,.18.01.41.02.82.02,1.23,0,.04,0,.08,0,.13,0,.43,0,.86-.01,1.29,0,.4-.03.8-.05,1.2,0,.13-.01.25-.02.38-.02.28-.03.56-.06.83-.01.14-.02.28-.03.42-.02.27-.05.55-.08.82-.01.13-.03.26-.04.38-.04.36-.08.72-.13,1.07,0,.04,0,.07-.01.11-.05.39-.11.78-.18,1.17-.02.12-.04.24-.06.35-.05.28-.1.55-.15.83-.03.14-.05.27-.08.41-.05.27-.11.53-.17.79-.03.13-.05.25-.08.38-.07.33-.15.65-.23.98-.01.06-.03.12-.04.17-.1.38-.2.76-.31,1.14-.03.11-.06.22-.09.32-.08.27-.16.54-.24.81-.04.13-.08.26-.12.39-.08.25-.17.51-.25.76-.04.12-.08.25-.13.37-.1.3-.21.6-.32.89-.03.07-.05.14-.08.21-.14.37-.28.73-.43,1.09-.04.1-.08.19-.12.29-.11.27-.22.53-.34.8-.05.12-.11.25-.16.37-.11.24-.22.48-.33.73-.06.12-.11.24-.17.36-.13.27-.27.55-.4.82-.04.08-.08.16-.12.23-.18.35-.36.69-.55,1.03-.05.08-.09.17-.14.25-.14.26-.29.52-.44.77-.07.12-.14.23-.2.35-.14.23-.27.46-.41.68-.07.11-.14.23-.21.34-.16.25-.31.5-.48.74-.05.08-.11.17-.16.25-.22.32-.44.65-.66.97-.05.07-.1.14-.15.21-.18.25-.36.5-.54.74-.08.11-.16.21-.24.32-.16.21-.32.42-.49.63-.08.11-.17.22-.26.32-.18.22-.36.44-.54.66-.07.08-.14.17-.21.25-.25.3-.51.6-.77.89-.05.06-.1.11-.15.17-.17.19-.34.38-.52.57-2.79-5.72-5.95-11.27-9.47-16.57-.23-.36-.47-.73-.71-1.09,6.74-6.15,14.21-11.3,22.29-15.38Zm39.69,60.95c-9.59,14.17-22.34,25.68-37.24,33.7-.08-6.67-.62-13.35-1.61-19.92.3-.2.6-.4.9-.6.05-.03.1-.07.15-.1.37-.25.73-.5,1.09-.76.12-.08.24-.17.36-.26.24-.17.49-.35.73-.52.14-.11.29-.21.43-.32.21-.16.43-.32.64-.48.15-.11.3-.23.45-.35.2-.16.41-.31.61-.47.15-.12.31-.24.46-.36.2-.16.4-.31.59-.47.15-.12.3-.25.46-.37.2-.16.39-.32.59-.48.15-.12.3-.25.45-.37.2-.16.39-.33.59-.5.14-.12.29-.25.43-.37.2-.18.41-.35.61-.53.13-.12.26-.23.4-.35.24-.21.47-.42.71-.64.09-.09.19-.17.28-.26.32-.3.65-.6.97-.9.1-.1.2-.2.3-.29.22-.21.44-.42.66-.63.13-.13.26-.25.38-.38.19-.19.38-.37.56-.56.14-.14.27-.27.4-.41.18-.18.35-.36.53-.54.14-.14.27-.28.41-.43.17-.18.34-.36.51-.54.14-.15.27-.29.41-.44.17-.18.34-.36.5-.55.13-.15.27-.29.4-.44.17-.19.33-.38.5-.56.13-.15.26-.29.38-.44.17-.2.34-.4.51-.6.12-.14.24-.28.35-.41.19-.23.38-.45.57-.68.1-.12.19-.23.29-.35.28-.34.56-.68.83-1.03.07-.08.13-.17.2-.25.21-.27.42-.53.62-.8.1-.13.21-.27.31-.41.17-.22.33-.44.5-.66.11-.15.22-.3.33-.45.15-.21.31-.42.46-.63.11-.16.22-.31.34-.47.15-.21.29-.41.44-.62.11-.16.22-.32.33-.48.14-.21.29-.42.43-.63.11-.16.22-.32.32-.48.14-.21.28-.43.43-.65.1-.16.21-.32.31-.48.15-.23.29-.45.43-.68.1-.15.19-.3.29-.45.16-.25.31-.5.47-.76.08-.13.16-.25.23-.38.23-.38.46-.77.68-1.15,7.76-13.35,11.87-28.61,11.87-44.14,0-.46,0-.91-.01-1.37,0-.14,0-.28,0-.43,0-.32-.01-.64-.02-.96,0-.16-.01-.32-.02-.48-.01-.32-.03-.63-.04-.95,0-.14-.01-.29-.02-.43-.02-.45-.05-.89-.08-1.34,0,0,0-.02,0-.03-.03-.45-.07-.91-.1-1.36-.01-.14-.03-.29-.04-.43-.03-.32-.06-.63-.09-.95-.02-.16-.03-.32-.05-.48-.03-.32-.07-.63-.1-.95-.02-.14-.03-.29-.05-.43-.05-.45-.11-.89-.17-1.33,0,0,0-.01,0-.02,2.47-.13,4.95-.17,7.42-.12,3.38.07,6.78.31,10.14.72.46,4.02.7,8.09.7,12.14,0,21.05-6.21,41.35-17.95,58.71Z"/><path class="cls-1" d="m130.97,167.44c-6-14.19-14.59-26.92-25.53-37.86-10.94-10.94-23.68-19.53-37.86-25.53-14.69-6.21-30.29-9.36-46.37-9.36-4.87,0-9.79.3-14.62.89l-4.93.6-.65,4.92c-.68,5.17-1.03,10.45-1.03,15.68,0,16.08,3.15,31.68,9.36,46.37,6,14.19,14.59,26.92,25.53,37.86,10.94,10.94,23.68,19.53,37.86,25.53,14.69,6.21,30.29,9.36,46.37,9.36,4.87,0,9.79-.3,14.62-.89l4.93-.6.65-4.92c.68-5.17,1.03-10.45,1.03-15.68,0-16.08-3.15-31.68-9.36-46.37Zm-3.46,46.37c0,.08,0,.17,0,.25l-15.98-16.13v-40.23c2.91,4.68,5.46,9.6,7.63,14.73,5.54,13.1,8.35,27.02,8.35,41.37Zm-28.8-72.76v43.94l-15.26-15.4v-41.98c4.57,3.31,8.89,6.99,12.93,11.03.79.79,1.57,1.59,2.33,2.41Zm-28.08-21.39v36.99l-14.72-14.85v-28.51c2.25.78,4.48,1.63,6.68,2.56,2.74,1.16,5.42,2.43,8.04,3.8Zm-57.81-2.87c0-.08,0-.17,0-.25l20.21,20.39H14.72c-1.26-6.59-1.9-13.32-1.9-20.15Zm9.11-9.27c7.18.05,14.25.8,21.16,2.24v19.11l-21.16-21.35Zm-3.9,42.24h27.71l15.11,15.25H24.35c-1.14-2.24-2.2-4.52-3.18-6.84-1.17-2.77-2.22-5.57-3.14-8.41Zm14.04,28.07h41.49l14.96,15.09h-43.58c-.33-.32-.65-.64-.98-.96-4.39-4.39-8.36-9.11-11.89-14.13Zm28.81,27.91h40.34l17.19,17.35c-14.1-.09-27.78-2.9-40.66-8.35-5.92-2.5-11.55-5.51-16.87-9Z"/><path class="cls-1" d="m116.38,56.96c-9.31,0-18.23,2.08-26.52,6.19-7.89,3.91-14.96,9.65-20.43,16.58l-5.24,6.64,7.79,3.29c15.18,6.41,28.93,15.46,40.89,26.91l4.87,4.66,4.44-5.07c10.36-11.83,23.41-21.4,37.76-27.65l7.88-3.44-5.5-6.6c-11.4-13.67-28.14-21.51-45.92-21.51Zm.57,45.87c-9.63-8.44-20.23-15.55-31.64-21.23,8.51-7.55,19.46-11.76,31.07-11.76s21.68,3.89,30.05,10.89c-10.85,5.79-20.85,13.29-29.47,22.1Z"/><rect class="cls-2" x="582.77" y="91.9" width="0" height="9.56"/></svg>