<?xml version="1.0" encoding="UTF-8"?>
<svg id="Layer_3" xmlns="http://www.w3.org/2000/svg" version="1.1" viewBox="0 0 754 235.91">
  <!-- Generator: Adobe Illustrator 29.8.1, SVG Export Plug-In . SVG Version: 2.1.1 Build 2)  -->
  <defs>
    <style>
      .st0 {
        fill: #504736;
      }

      .st1 {
        fill: #3d4c1c;
      }

      .st2 {
        fill: #898644;
      }
    </style>
  </defs>
  <polygon class="st2" points="344.67 78.6 294.07 1.19 280.8 1.19 280.8 101.29 294.07 101.29 294.07 24.08 344.47 101.29 357.8 101.29 357.8 1.19 344.67 1.19 344.67 78.6"/>
  <path class="st2" d="M435.9,85.06v-34.65c0-5.55-1.18-10.16-3.54-13.85-2.36-3.69-5.61-6.45-9.76-8.28-4.15-1.83-8.93-2.75-14.33-2.75-4.49,0-8.56.63-12.2,1.89s-6.76,2.95-9.35,5.09c-2.59,2.13-4.57,4.5-5.95,7.11-1.37,2.61-2.06,5.25-2.06,7.91h12.72c0-2.06.68-3.99,2.03-5.77,1.35-1.79,3.23-3.23,5.64-4.33s5.21-1.65,8.42-1.65c3.44,0,6.32.6,8.66,1.79,2.34,1.19,4.09,2.88,5.26,5.05,1.17,2.18,1.75,4.73,1.75,7.67v5.91h-12.58c-5.09,0-9.69.53-13.82,1.58s-7.65,2.6-10.59,4.64c-2.93,2.04-5.18,4.58-6.74,7.63s-2.34,6.56-2.34,10.55,1.04,7.85,3.13,11.17,5.02,5.97,8.8,7.94,8.19,2.96,13.24,2.96c4.03,0,7.66-.7,10.9-2.1,3.23-1.4,6.03-3.16,8.39-5.3.69-.62,1.32-1.25,1.93-1.89.07.67.13,1.33.24,2.03.37,2.45.87,4.41,1.51,5.88h13.27v-1.1c-.87-2.02-1.52-4.42-1.96-7.22s-.65-5.43-.65-7.91h-.02ZM414.45,89.05c-2.98,1.65-6.42,2.47-10.31,2.47-3.12,0-5.74-.56-7.87-1.68s-3.72-2.65-4.78-4.57c-1.05-1.92-1.58-4.06-1.58-6.39s.5-4.3,1.51-6.02c1.01-1.72,2.47-3.15,4.4-4.3s4.31-2,7.15-2.58c2.84-.57,6.07-.86,9.69-.86h10.52v15.2c-.43.88-.95,1.77-1.61,2.67-1.77,2.38-4.14,4.4-7.12,6.05h0Z"/>
  <path class="st2" d="M484.68,91.42c-1.17.21-2.28.31-3.34.31-1.42,0-2.75-.21-3.99-.62s-2.25-1.26-3.02-2.54-1.17-3.19-1.17-5.71v-46.2h13.89v-9.76h-13.89V8.82h-12.72v18.08h-13.61v9.76h13.61v46.13c0,4.95.77,8.88,2.3,11.79,1.54,2.91,3.61,4.99,6.22,6.22,2.61,1.24,5.48,1.86,8.59,1.86,2.29,0,4.25-.15,5.88-.45,1.63-.3,2.94-.61,3.95-.93l-.07-10.38c-.6.14-1.48.31-2.65.51h.02Z"/>
  <path class="st2" d="M547.48,80.93c-1.42,3.24-3.57,5.86-6.53,7.81-3.16,2.09-7.45,3.13-12.86,3.13-1.74,0-3.43-.25-5.05-.76-1.63-.5-3.1-1.39-4.4-2.65-1.31-1.26-2.34-2.98-3.1-5.16-.75-2.18-1.13-4.94-1.13-8.28V26.9h-12.72v47.99c0,4.95.59,9.19,1.75,12.72,1.17,3.53,2.83,6.39,4.99,8.59,2.15,2.2,4.73,3.83,7.74,4.88,3,1.05,6.31,1.58,9.93,1.58,5.32,0,9.83-.86,13.54-2.58,3.3-1.53,6.01-3.62,8.19-6.22l.27,7.43h12.17V26.9h-12.79v54.03Z"/>
  <path class="st2" d="M685.81,61.96c0-5.22-.6-10.05-1.79-14.47-1.19-4.42-3.02-8.27-5.5-11.55-2.47-3.28-5.65-5.83-9.52-7.67-3.87-1.83-8.47-2.75-13.78-2.75-4.17,0-8.2.85-12.1,2.54-3.9,1.7-7.38,4.19-10.45,7.49s-5.5,7.32-7.29,12.07c-1.79,4.74-2.68,10.14-2.68,16.19v2.89c0,5.22.8,10.04,2.41,14.44,1.6,4.4,3.91,8.2,6.91,11.41,3,3.21,6.6,5.7,10.8,7.46,4.19,1.76,8.88,2.65,14.06,2.65,4.9,0,9.15-.69,12.75-2.06,3.6-1.37,6.63-3.16,9.11-5.36s4.51-4.51,6.12-6.94l-7.7-6.12c-2.34,3.07-5.06,5.52-8.18,7.36s-6.92,2.75-11.41,2.75c-3.48,0-6.59-.66-9.32-1.99s-5.04-3.16-6.94-5.5-3.35-5.05-4.33-8.15c-.89-2.81-1.36-5.81-1.44-8.97h50.29v-5.71h-.02,0ZM673.09,57.29h-37.22c.24-1.91.59-3.7,1.05-5.36.96-3.44,2.31-6.35,4.06-8.73,1.74-2.38,3.83-4.18,6.26-5.4,2.43-1.21,5.09-1.82,7.97-1.82,4.35,0,7.79,1.01,10.31,3.02,2.52,2.02,4.37,4.58,5.53,7.7,1.17,3.12,1.85,6.32,2.03,9.62v.96h.01Z"/>
  <path class="st0" d="M333.03,153.67c1.15-4.35,2.85-8.09,5.12-11.21,2.27-3.12,5.09-5.52,8.45-7.22,3.37-1.7,7.28-2.54,11.72-2.54,5.18,0,9.37.92,12.58,2.75s5.68,4.43,7.42,7.8c1.74,3.37,2.93,7.39,3.57,12.06h13.2c-.69-6.6-2.49-12.41-5.4-17.43-2.91-5.02-6.98-8.95-12.2-11.79-5.22-2.84-11.62-4.26-19.18-4.26-6.19,0-11.76,1.1-16.71,3.3-4.95,2.2-9.18,5.34-12.68,9.42-3.51,4.08-6.19,8.97-8.05,14.68-1.85,5.71-2.78,12.07-2.78,19.08v9.97c0,7.01.93,13.37,2.78,19.08,1.86,5.71,4.5,10.59,7.94,14.65,3.44,4.05,7.55,7.18,12.34,9.38,4.79,2.2,10.12,3.3,15.98,3.3,8.02,0,14.71-1.45,20.07-4.37,5.36-2.91,9.51-6.86,12.44-11.86s4.74-10.66,5.43-16.98h-13.2c-.73,4.67-1.96,8.69-3.68,12.03-1.72,3.35-4.25,5.91-7.6,7.7s-7.84,2.68-13.47,2.68c-4.45,0-8.3-.93-11.55-2.79-3.25-1.85-5.94-4.41-8.04-7.66-2.11-3.25-3.68-7.04-4.71-11.34-1.03-4.31-1.55-8.91-1.55-13.82v-10.11c0-5.32.57-10.15,1.72-14.51h.04,0Z"/>
  <path class="st0" d="M441.52,147.55c-4.03,0-7.51.86-10.42,2.58s-5.3,4.1-7.18,7.15c-.03.05-.06.11-.09.17l-.25-8.52h-12.37v74.39h12.72v-52.81c.88-2.1,2.04-3.94,3.51-5.49,1.56-1.65,3.46-2.93,5.71-3.85s4.84-1.37,7.77-1.37c1.19,0,2.26.03,3.2.1s1.94.22,2.99.45l.07-11.82c-.46-.23-1.28-.45-2.47-.65s-2.25-.31-3.16-.31l-.03-.02Z"/>
  <path class="st0" d="M510.13,157.97c-2.47-3.28-5.65-5.83-9.52-7.67-3.87-1.83-8.47-2.75-13.78-2.75-4.17,0-8.2.85-12.1,2.54s-7.38,4.19-10.45,7.49-5.5,7.32-7.29,12.07c-1.79,4.74-2.68,10.14-2.68,16.19v2.89c0,5.22.8,10.04,2.41,14.44,1.6,4.4,3.91,8.2,6.91,11.41s6.6,5.7,10.8,7.46c4.19,1.76,8.88,2.65,14.06,2.65,4.9,0,9.15-.69,12.75-2.06s6.63-3.16,9.11-5.36c2.47-2.2,4.51-4.51,6.12-6.94l-7.7-6.12c-2.34,3.07-5.06,5.52-8.18,7.36s-6.92,2.75-11.41,2.75c-3.48,0-6.59-.66-9.32-1.99s-5.04-3.16-6.94-5.5-3.35-5.05-4.33-8.15c-.89-2.81-1.36-5.81-1.44-8.97h50.29v-5.71c0-5.22-.6-10.05-1.79-14.47s-3.02-8.27-5.5-11.55h-.02,0ZM504.7,179.32h-37.22c.24-1.91.59-3.7,1.05-5.36.96-3.44,2.31-6.35,4.06-8.73,1.74-2.38,3.83-4.18,6.26-5.4,2.43-1.21,5.09-1.82,7.97-1.82,4.35,0,7.79,1.01,10.31,3.02,2.52,2.02,4.37,4.58,5.53,7.7,1.17,3.12,1.85,6.32,2.03,9.62v.96h.01Z"/>
  <path class="st0" d="M613.07,25.84c-1.19-.2-2.25-.31-3.16-.31-4.03,0-7.51.86-10.42,2.58s-5.3,4.1-7.18,7.15c-.03.05-.06.11-.09.17l-.25-8.52h-12.37l-.44,129.51c-2.34-2.76-5.11-4.92-8.35-6.42-3.51-1.63-7.6-2.44-12.27-2.44s-8.47.91-12.06,2.72c-3.6,1.81-6.69,4.39-9.28,7.73-2.59,3.35-4.58,7.35-5.98,12-1.4,4.65-2.1,9.82-2.1,15.5v1.44c0,5.41.7,10.41,2.1,15.02,1.4,4.6,3.39,8.6,5.98,12,2.59,3.39,5.68,6.03,9.28,7.91,3.6,1.88,7.57,2.82,11.93,2.82,4.72,0,8.85-.81,12.37-2.44,3.49-1.61,6.44-3.92,8.88-6.94l.61,8.01h11.69l.37-174.83c.88-2.1,2.04-3.94,3.51-5.49,1.56-1.65,3.46-2.93,5.71-3.85s4.84-1.37,7.77-1.37c1.19,0,2.26.03,3.2.1s1.94.22,2.99.45l.07-11.82c-.46-.23-1.28-.45-2.47-.65l-.04-.03h0ZM579.15,202.95c-.21.4-.4.8-.62,1.19-1.65,2.93-3.84,5.29-6.57,7.08-2.73,1.79-6.2,2.68-10.41,2.68-3.44,0-6.39-.7-8.87-2.1-2.47-1.4-4.51-3.33-6.12-5.81-1.6-2.47-2.79-5.34-3.54-8.59-.76-3.25-1.14-6.74-1.14-10.45v-1.44c0-3.71.38-7.21,1.14-10.48.75-3.28,1.94-6.16,3.54-8.66s3.65-4.47,6.15-5.91c2.5-1.45,5.49-2.17,8.97-2.17,3.21,0,5.99.55,8.35,1.65,2.36,1.1,4.35,2.58,5.98,4.43,1.21,1.38,2.25,2.9,3.13,4.55v34.03h.01Z"/>
  <rect class="st0" x="612.7" y="148.93" width="12.79" height="74.39"/>
  <path class="st0" d="M619.23,121.84c-2.47,0-4.34.71-5.6,2.13-1.26,1.42-1.89,3.16-1.89,5.22s.63,3.66,1.89,5.05c1.26,1.4,3.13,2.1,5.6,2.1s4.3-.7,5.6-2.1c1.31-1.4,1.96-3.08,1.96-5.05s-.65-3.8-1.96-5.22c-1.3-1.42-3.17-2.13-5.6-2.13Z"/>
  <path class="st0" d="M674.68,213.45c-1.17.21-2.28.31-3.34.31-1.42,0-2.75-.21-3.99-.62s-2.25-1.26-3.02-2.54c-.78-1.28-1.17-3.19-1.17-5.71v-46.2h13.89v-9.76h-13.89v-18.08h-12.72v18.08h-13.61v9.76h13.61v46.13c0,4.95.77,8.88,2.3,11.79,1.54,2.91,3.61,4.99,6.22,6.22,2.61,1.24,5.48,1.86,8.59,1.86,2.29,0,4.25-.15,5.88-.45s2.94-.61,3.95-.93l-.07-10.38c-.6.14-1.48.31-2.65.51h.02Z"/>
  <path class="st0" d="M745.11,192.45c-1.92-2.8-4.86-5.16-8.8-7.08s-8.96-3.57-15.06-4.95c-3.48-.78-6.35-1.56-8.59-2.34s-3.99-1.62-5.22-2.51c-1.24-.9-2.1-1.88-2.58-2.96-.48-1.08-.72-2.3-.72-3.68,0-1.83.49-3.57,1.48-5.22.98-1.65,2.57-3.01,4.74-4.09s5.03-1.62,8.56-1.62,6.18.64,8.49,1.92,4.08,2.9,5.3,4.85c1.21,1.95,1.82,3.95,1.82,6.02h12.72c0-4.26-1.12-8.15-3.37-11.65s-5.48-6.31-9.69-8.42c-4.22-2.11-9.3-3.16-15.26-3.16-4.17,0-7.95.57-11.34,1.72s-6.29,2.73-8.7,4.74c-2.41,2.02-4.26,4.33-5.57,6.94-1.3,2.61-1.96,5.39-1.96,8.32s.62,5.75,1.86,8.04,3.01,4.29,5.33,5.98c2.31,1.7,5.13,3.14,8.46,4.33,3.32,1.19,7.05,2.22,11.17,3.09,4.9.96,8.58,2.1,11.03,3.4,2.45,1.3,4.08,2.75,4.88,4.33s1.2,3.29,1.2,5.12c0,2.06-.62,3.9-1.86,5.5s-3.04,2.86-5.4,3.78c-2.36.92-5.28,1.37-8.77,1.37-2.61,0-5.25-.42-7.91-1.27s-4.9-2.29-6.74-4.33c-1.83-2.04-2.84-4.8-3.02-8.28h-12.79c0,4.12,1.17,8.04,3.51,11.76s5.77,6.74,10.31,9.07c4.54,2.34,10.08,3.51,16.64,3.51,4.35,0,8.28-.54,11.79-1.62,3.5-1.08,6.53-2.59,9.07-4.54s4.49-4.27,5.84-6.98c1.35-2.7,2.03-5.68,2.03-8.94,0-3.99-.96-7.38-2.89-10.17v.02h.01Z"/>
  <path class="st0" d="M234.08,79.98s-30.21-2.57-44.88,1.68c-.98.28-4.87-14.39-28.69-29.47-10.92-6.91-24-9.86-37-9.86s-26.03,3.47-37.31,10.03c-10.95,6.38-20.16,15.51-26.63,26.41l-2.21,3.73-4.27-.77c-7.66-1.38-15.51-2.08-23.35-2.08-2.02,0-4.1.05-6.19.15l-10.03.47,4.01-9.2c8.92-20.44,23.46-37.81,42.06-50.22C78.66,8.11,100.92,1.38,123.95,1.38s45.97,6.94,65.25,20.07c18.81,12.81,33.34,30.66,42.02,51.63l2.86,6.91h0ZM33.35,67.21c5.95.15,11.9.67,17.76,1.54,7.37-11.12,17.25-20.46,28.8-27.18,13.18-7.67,28.26-11.73,43.6-11.73s30.14,3.98,43.24,11.52c11.52,6.63,20.82,15,28.23,26.02,3.85-.38,16.63-.98,19.22-.8-7.85-14.44-18.28-25.45-32.03-34.81-17.2-11.71-37.33-17.9-58.22-17.9s-40.41,6-57.43,17.37c-13.85,9.25-25.18,21.56-33.18,35.98h.01Z"/>
  <path class="st0" d="M238.23,98.92l-.7-4.4-4.39-.74c-5.34-.91-10.81-1.42-16.25-1.53-3.31-.07-6.64.01-9.95.24l-5.63.53-6.74,1.03c-4.82.89-9.58,2.11-14.25,3.64,0,0-8.81,3.37-11.71,4.61-12.18,5.2-22.88,13.15-32.31,22.67l-3.68,3.71,3.03,4.26c1.17,1.64,2.32,3.35,3.42,5.06l.04.07c4.62,6.98,8.58,14.43,11.76,22.13,3.49,8.44,6.08,17.27,7.7,26.25v.03c1.39,7.64,2.09,15.48,2.09,23.31,0,2.56-.08,5.18-.23,7.78l-.59,9.96,9.2-3.87c20.67-8.71,38.25-23.16,50.86-41.79,12.92-19.1,19.75-41.43,19.75-64.58,0-6.15-.49-12.33-1.46-18.37h.04ZM197.02,106.23v.09c.05.39.1.77.15,1.16,0,.05,0,.11.02.16.04.33.08.67.11,1,0,.13.03.25.04.38.03.27.05.54.08.81,0,.13.02.26.03.39.03.31.05.61.07.92,0,.08,0,.17.02.25.03.39.05.77.07,1.16v.31c0,.29.03.58.04.87v.4c0,.28.02.55.02.83v1.53c0,13.05-3.45,25.87-9.96,37.07-.27.46-.55.92-.82,1.38-.07.11-.13.22-.2.33-.28.45-.56.9-.85,1.34-.03.04-.05.08-.08.12-.27.41-.54.82-.82,1.23-.07.1-.14.21-.21.31-.3.43-.6.87-.91,1.29-.04.06-.09.12-.13.18-.28.38-.56.76-.84,1.14-.07.1-.15.19-.22.29-.32.42-.64.83-.97,1.24-.06.07-.12.15-.18.22-.29.36-.58.72-.88,1.07-.07.09-.14.17-.22.26-.34.4-.68.8-1.02,1.19-.07.08-.14.16-.22.24-.3.34-.61.69-.92,1.02-.07.07-.13.15-.2.22-.36.38-.72.77-1.08,1.14-.08.08-.16.17-.25.25-.33.34-.66.67-.99,1l-.17.17c-.38.37-.76.73-1.14,1.09-.09.08-.18.17-.27.25-.36.33-.71.66-1.07.98-.04.04-.08.08-.13.11-.39.35-.79.7-1.2,1.04-.1.08-.19.16-.29.25-.4.33-.79.66-1.19.99,0,0-.03.02-.04.04-.41.33-.83.66-1.25.99-.05.04-.1.08-.15.12-1.3-5.2-2.9-10.32-4.78-15.34l.04-.04c.32-.29.64-.59.96-.88.05-.05.1-.1.16-.15.31-.29.62-.59.92-.89l.15-.15c.31-.3.61-.61.91-.92.04-.04.08-.08.12-.13.31-.32.61-.65.91-.98,0-.02.03-.03.04-.05.3-.33.6-.67.89-1.01.02-.02.04-.05.06-.07.29-.33.57-.67.85-1.01.04-.05.08-.09.12-.14.27-.33.54-.67.8-1,.04-.05.09-.11.13-.16.26-.34.52-.68.77-1.02.04-.05.08-.1.11-.16.26-.35.51-.7.76-1.06.02-.03.05-.07.07-.1.26-.37.52-.75.77-1.13h0c.25-.38.5-.76.74-1.14.02-.04.05-.08.08-.12.23-.37.45-.74.67-1.11.03-.06.07-.11.1-.17.22-.37.43-.73.63-1.1.03-.06.07-.12.1-.18.21-.37.41-.75.61-1.13.03-.05.05-.1.08-.15.21-.39.41-.79.6-1.18,0-.02.02-.04.03-.06.2-.4.39-.81.58-1.21,0-.03.02-.05.04-.08.18-.4.36-.8.54-1.2.02-.05.05-.11.07-.16.17-.39.33-.78.49-1.18.03-.06.05-.13.08-.19.16-.39.31-.79.46-1.18.02-.06.05-.13.07-.19.15-.4.3-.81.44-1.22,0-.04.03-.09.04-.13.15-.43.29-.86.43-1.29h0c.14-.43.27-.87.39-1.3,0-.05.03-.09.04-.14.12-.41.23-.83.34-1.25.02-.07.04-.13.05-.2.11-.41.21-.82.3-1.23.02-.07.03-.14.05-.21.1-.42.19-.83.27-1.25,0-.06.02-.12.04-.18.09-.43.17-.87.25-1.3,0-.03,0-.06.02-.09.08-.44.15-.88.22-1.32,0-.03,0-.06.02-.1.07-.44.13-.88.18-1.32,0-.06.02-.13.02-.19.05-.43.1-.85.15-1.28,0-.07.02-.15.02-.22.04-.43.08-.85.11-1.28,0-.07,0-.14.02-.21.03-.44.06-.88.08-1.32v-.15c.02-.46.04-.93.05-1.39v-3.26c0-.23-.02-.47-.03-.7v-.27c-.02-.32-.03-.64-.05-.96v-.17c-.02-.26-.04-.53-.06-.79,0-.11-.02-.22-.03-.33-.02-.21-.04-.43-.06-.64,0-.12-.02-.23-.04-.35-.02-.21-.05-.42-.07-.64,0-.07-.02-.15-.02-.22,4.66-1.61,9.44-2.87,14.28-3.76l.02-.04h.02ZM170.69,115.09v.34c0,.4.02.8.02,1.21v1.39c0,.39-.03.79-.05,1.18,0,.12,0,.25-.02.37-.02.27-.03.55-.05.82,0,.14-.02.28-.03.41-.02.27-.05.54-.08.81,0,.13-.03.25-.04.38-.04.35-.08.7-.13,1.05v.11c-.05.39-.11.77-.17,1.15-.02.12-.04.23-.06.35-.05.27-.09.54-.15.81-.03.13-.05.27-.08.4-.05.26-.11.52-.16.78-.03.12-.05.25-.08.37-.07.32-.15.64-.23.96,0,.06-.03.11-.04.17-.09.37-.2.74-.3,1.11-.03.11-.06.21-.09.32-.08.27-.16.53-.24.8-.04.13-.08.26-.12.38-.08.25-.16.5-.25.75-.04.12-.08.24-.12.36-.1.29-.21.59-.32.88-.03.07-.05.14-.08.21-.14.36-.28.71-.42,1.07-.04.09-.08.19-.12.28-.11.26-.22.52-.33.78-.05.12-.11.24-.16.36-.11.24-.22.48-.33.71-.06.12-.11.23-.17.35-.13.27-.26.54-.4.8-.04.08-.08.15-.12.23-.17.34-.35.68-.54,1.01-.04.08-.09.16-.14.24-.14.25-.28.51-.43.76-.07.11-.13.23-.2.34-.13.22-.27.45-.4.67-.07.11-.14.22-.21.34-.15.24-.31.49-.47.73-.05.08-.11.16-.16.24-.21.32-.43.64-.65.95-.05.07-.1.14-.15.21-.17.25-.35.49-.53.73-.08.11-.16.21-.24.31-.16.21-.32.41-.48.62-.08.11-.17.21-.25.32-.17.22-.35.44-.53.65-.07.08-.14.17-.21.25-.25.29-.5.59-.75.87-.05.06-.1.11-.15.17-.17.19-.34.37-.51.56-2.73-5.61-5.84-11.06-9.29-16.26-.23-.36-.46-.71-.69-1.07,6.62-6.04,13.94-11.09,21.88-15.09h.04-.02ZM209.64,174.91c-9.41,13.91-21.92,25.2-36.55,33.07-.08-6.55-.61-13.1-1.58-19.55.29-.2.59-.39.88-.59.05-.03.1-.06.14-.1.36-.25.72-.5,1.07-.75.12-.08.23-.17.35-.25.24-.17.48-.34.71-.51.14-.1.28-.21.42-.31.21-.16.42-.31.63-.47.15-.11.3-.23.45-.34.2-.15.4-.31.6-.46.15-.12.3-.24.45-.35.19-.15.39-.31.58-.46.15-.12.3-.24.45-.36.19-.16.38-.31.58-.47.15-.12.29-.24.44-.37.19-.16.38-.33.58-.49.14-.12.28-.24.42-.36.2-.17.4-.35.6-.52.13-.11.26-.23.39-.34.23-.21.46-.42.69-.63.09-.08.19-.17.28-.25.32-.29.63-.59.95-.88.1-.09.2-.19.3-.29.22-.21.43-.41.64-.62.13-.12.25-.25.38-.37.19-.18.37-.37.55-.55l.4-.4c.17-.18.35-.35.52-.53.13-.14.27-.28.4-.42.17-.18.34-.35.5-.53.13-.14.27-.29.4-.43.16-.18.33-.36.49-.54.13-.14.26-.29.39-.43.16-.18.33-.37.49-.55.13-.14.25-.29.38-.43.17-.19.34-.39.5-.59.12-.14.23-.27.35-.41.19-.22.37-.45.56-.67.09-.11.19-.23.28-.34.27-.33.54-.67.81-1.01.07-.08.13-.17.19-.25.2-.26.41-.52.61-.78.1-.13.2-.27.3-.4.16-.22.33-.43.49-.65.11-.15.22-.29.33-.44.15-.21.3-.41.45-.62.11-.15.22-.31.33-.46.14-.2.29-.41.43-.61.11-.16.22-.31.33-.47.14-.21.28-.41.42-.62.11-.16.21-.31.32-.47.14-.21.28-.42.42-.63.1-.16.2-.31.3-.47.14-.22.28-.44.42-.67.09-.15.19-.3.28-.44.15-.25.31-.5.46-.74.08-.13.15-.25.23-.38.23-.38.45-.75.67-1.13,7.62-13.1,11.65-28.08,11.65-43.32v-1.76c0-.31,0-.63-.02-.94,0-.16,0-.31-.02-.47,0-.31-.02-.62-.04-.93,0-.14,0-.28-.02-.42-.02-.44-.05-.88-.08-1.31v-.03c-.03-.45-.06-.89-.1-1.34,0-.14-.02-.28-.04-.42-.03-.31-.06-.62-.09-.93-.02-.16-.03-.31-.05-.47-.03-.31-.07-.62-.1-.93-.02-.14-.03-.28-.05-.42-.05-.44-.11-.87-.17-1.31v-.02c2.42-.13,4.86-.17,7.28-.12,3.32.07,6.65.31,9.95.71.45,3.95.68,7.94.68,11.92,0,20.66-6.09,40.58-17.62,57.62v-.03h-.01Z"/>
  <path class="st2" d="M136.54,165.53c-5.89-13.92-14.32-26.42-25.05-37.16-10.73-10.73-23.24-19.16-37.16-25.05-14.42-6.1-29.73-9.19-45.51-9.19-4.78,0-9.61.29-14.34.87l-4.84.59-.64,4.83c-.67,5.08-1.01,10.26-1.01,15.39,0,15.78,3.09,31.09,9.19,45.51,5.89,13.92,14.32,26.42,25.05,37.16,10.73,10.73,23.24,19.16,37.16,25.05,14.42,6.1,29.73,9.19,45.51,9.19,4.78,0,9.61-.29,14.34-.87l4.84-.59.64-4.83c.67-5.08,1.01-10.25,1.01-15.39,0-15.78-3.09-31.09-9.19-45.51h0ZM133.15,211.04v.24l-15.68-15.83v-39.48c2.86,4.6,5.36,9.42,7.49,14.46,5.44,12.86,8.2,26.52,8.2,40.61h0ZM104.88,139.63v43.13l-14.98-15.12v-41.2c4.49,3.25,8.73,6.86,12.69,10.83.78.78,1.54,1.56,2.29,2.36h0ZM77.32,118.64v36.31l-14.44-14.57v-27.98c2.21.76,4.39,1.6,6.56,2.51,2.69,1.14,5.32,2.38,7.89,3.73h-.01ZM20.59,115.82v-.24l19.84,20.02h-17.97c-1.24-6.47-1.86-13.07-1.86-19.77h-.01ZM29.53,106.72c7.05.05,13.99.78,20.77,2.2v18.76s-20.77-20.96-20.77-20.96ZM25.7,148.18h27.2l14.83,14.96H31.9c-1.12-2.19-2.16-4.43-3.12-6.71-1.15-2.72-2.18-5.47-3.08-8.25ZM39.48,175.73h40.72l14.68,14.81h-42.77c-.32-.31-.64-.63-.96-.95-4.31-4.31-8.21-8.94-11.67-13.87h0ZM67.75,203.12h39.59l16.87,17.02c-13.84-.09-27.26-2.84-39.91-8.19-5.81-2.46-11.33-5.41-16.56-8.83h0Z"/>
  <path class="st0" d="M122.22,57.09c-9.14,0-17.89,2.04-26.02,6.08-7.75,3.84-14.68,9.47-20.05,16.28l-5.14,6.52,7.65,3.23c14.89,6.29,28.39,15.17,40.13,26.41l4.78,4.57,4.36-4.98c10.16-11.61,22.98-21,37.06-27.14l7.73-3.37-5.4-6.48c-11.19-13.42-27.62-21.11-45.07-21.11h-.03,0ZM122.78,102.11c-9.45-8.29-19.85-15.27-31.05-20.83,8.35-7.41,19.1-11.54,30.49-11.54s21.28,3.82,29.49,10.69c-10.65,5.68-20.46,13.04-28.92,21.69h0Z"/>
  <rect class="st1" x="579.95" y="91.39" height="9.39"/>
</svg>