<?xml version="1.0" encoding="UTF-8"?>
<svg xmlns="http://www.w3.org/2000/svg" version="1.1" viewBox="0 0 1800 1800">
  <!-- Generator: Adobe Illustrator 29.8.1, SVG Export Plug-In . SVG Version: 2.1.1 Build 2)  -->
  <defs>
    <style>
      .st0 {
        fill: #222321;
      }

      .st1 {
        fill: #fff;
      }

      .st2 {
        display: none;
      }
    </style>
  </defs>
  <g id="Layer_2" class="st2">
    <rect class="st0" width="1800" height="1800"/>
  </g>
  <g id="Layer_1">
    <g>
      <path class="st1" d="M981.71,1224.48c-37.9-93.19-92.15-176.87-161.24-248.72-69.09-71.85-149.56-128.27-239.16-167.68-92.79-40.82-191.34-61.51-292.9-61.51-30.77,0-61.84,1.97-92.32,5.85l-31.13,3.96-4.09,32.34c-4.3,33.98-6.48,68.64-6.48,103.01,0,105.62,19.9,208.1,59.15,304.6,37.9,93.18,92.15,176.86,161.24,248.72,69.09,71.85,149.56,128.27,239.16,167.68,92.79,40.82,191.34,61.51,292.9,61.51,30.78,0,61.84-1.97,92.32-5.85l31.13-3.96,4.09-32.34c4.3-33.98,6.48-68.64,6.48-103.01,0-105.62-19.9-208.1-59.15-304.6ZM959.87,1529.08c0,.54,0,1.09,0,1.63l-100.95-105.93v-264.25c18.41,30.77,34.51,63.07,48.21,96.76,35,86.06,52.75,177.51,52.75,271.79ZM777.93,1051.12v288.67l-96.42-101.18v-275.78c28.87,21.73,56.16,45.92,81.7,72.48,5,5.2,9.9,10.47,14.72,15.81ZM600.52,910.61v243.02l-92.96-97.55v-187.27c14.2,5.11,28.28,10.71,42.2,16.83,17.31,7.61,34.23,15.94,50.76,24.96ZM235.37,891.74c0-.54,0-1.09,0-1.63l127.67,133.98h-115.68c-7.98-43.29-12-87.49-12-132.34ZM292.9,830.82c45.36.31,90.02,5.24,133.68,14.73v125.55l-133.68-140.28ZM268.26,1108.3h175.04l95.45,100.17h-230.54c-7.19-14.69-13.89-29.67-20.1-44.94-7.39-18.18-14.01-36.6-19.86-55.23ZM356.96,1292.69h262.07l94.48,99.14h-275.3c-2.07-2.09-4.12-4.2-6.17-6.33-27.76-28.87-52.82-59.87-75.08-92.82ZM538.92,1476.05h254.84l108.59,113.95c-89.08-.6-175.48-19.03-256.87-54.83-37.37-16.44-72.95-36.19-106.56-59.12Z"/>
      <path class="st1" d="M1609.5,651.88s-194.47-17.18-288.84,11.24c-6.32,1.9-31.34-96.34-184.67-197.25-70.29-46.26-154.46-65.97-238.17-65.97s-167.57,23.23-240.16,67.17c-70.5,42.67-129.77,103.79-171.4,176.76l-14.24,24.95-27.46-5.14c-49.28-9.23-99.85-13.91-150.31-13.91-13.02,0-26.42.33-39.83.98l-64.55,3.12,25.84-61.6c57.39-136.81,151-253.06,270.71-336.18,122.79-85.25,266.03-130.31,414.25-130.31s295.91,46.45,419.98,134.33c121.08,85.76,214.6,205.25,270.45,345.55l18.41,46.24ZM317.52,566.43c38.32,1,76.6,4.45,114.33,10.32,47.43-74.41,111.06-136.95,185.36-181.93,84.86-51.36,181.89-78.51,280.6-78.51s194,26.67,278.28,77.11c74.17,44.4,134.02,100.39,181.73,174.17,24.75-2.55,107.01-6.54,123.71-5.38-50.55-96.68-117.65-170.33-206.15-233.01-110.68-78.39-240.26-119.83-374.73-119.83s-260.09,40.19-369.61,116.24c-89.14,61.89-162.06,144.34-213.53,240.83Z"/>
      <path class="st1" d="M1636.24,778.66l-4.53-29.42-28.25-4.99c-34.38-6.07-69.56-9.52-104.56-10.27-21.32-.45-42.74.1-64.01,1.63,0,0-36.24,3.57-36.24,3.57l-43.38,6.91c-31.05,5.97-61.69,14.1-91.69,24.36,0,0-56.73,22.58-75.35,30.84-78.39,34.79-147.24,88.02-207.94,151.73l-23.68,24.86,19.51,28.5c7.53,11,14.95,22.39,22.04,33.85l.29.46c29.76,46.71,55.23,96.56,75.71,148.15,22.43,56.5,39.11,115.63,49.58,175.74l.03.18c8.9,51.16,13.41,103.65,13.41,156.02,0,17.13-.5,34.66-1.49,52.08l-3.78,66.68,59.19-25.93c133.02-58.28,246.22-155.01,327.37-279.74,83.18-127.84,127.14-277.32,127.14-432.27,0-41.15-3.15-82.51-9.37-122.93ZM1371.01,827.57c.03.21.06.41.08.62.34,2.58.67,5.16.97,7.74.04.36.08.73.12,1.1.26,2.23.5,4.45.72,6.68.09.85.17,1.7.25,2.55.18,1.81.34,3.62.5,5.43.08.87.15,1.74.22,2.61.17,2.05.32,4.1.46,6.15.04.57.08,1.13.12,1.7.17,2.59.32,5.18.45,7.78.03.68.06,1.37.09,2.05.09,1.95.17,3.89.24,5.84.03.88.06,1.77.09,2.65.06,1.85.1,3.7.14,5.55.02.81.04,1.61.05,2.42.04,2.61.06,5.23.06,7.84,0,87.33-22.17,173.14-64.13,248.16-1.73,3.1-3.51,6.17-5.31,9.23-.43.73-.86,1.47-1.3,2.2-1.8,3.02-3.61,6.02-5.47,9-.16.26-.33.52-.49.78-1.74,2.77-3.5,5.52-5.29,8.26-.46.7-.91,1.4-1.37,2.09-1.92,2.9-3.86,5.79-5.84,8.65-.28.41-.57.81-.86,1.22-1.78,2.56-3.59,5.09-5.41,7.61-.47.65-.94,1.3-1.41,1.95-2.04,2.79-4.11,5.56-6.21,8.31-.38.5-.77.99-1.15,1.48-1.86,2.41-3.74,4.8-5.64,7.17-.46.58-.92,1.16-1.39,1.74-2.17,2.68-4.36,5.34-6.59,7.98-.46.54-.93,1.08-1.39,1.63-1.96,2.31-3.94,4.59-5.95,6.86-.44.49-.87.99-1.31,1.48-2.29,2.57-4.61,5.12-6.96,7.64-.52.56-1.05,1.12-1.58,1.68-2.1,2.24-4.22,4.47-6.37,6.67-.38.39-.75.78-1.12,1.16-2.42,2.46-4.86,4.9-7.33,7.31-.58.56-1.16,1.12-1.74,1.69-2.29,2.21-4.59,4.41-6.92,6.58-.27.25-.54.51-.81.77-2.54,2.35-5.11,4.67-7.7,6.97-.62.55-1.24,1.09-1.86,1.64-2.54,2.23-5.1,4.45-7.69,6.63-.1.08-.19.16-.28.24-2.66,2.24-5.36,4.44-8.07,6.62-.33.26-.66.52-.98.79-8.38-34.79-18.67-69.11-30.78-102.68.09-.08.17-.17.26-.25,2.09-1.95,4.15-3.93,6.18-5.92.34-.33.67-.66,1.01-.99,2-1.97,3.98-3.96,5.93-5.98.33-.34.67-.69,1-1.03,1.97-2.04,3.91-4.1,5.83-6.18.26-.28.52-.57.78-.85,1.99-2.17,3.95-4.36,5.89-6.57.1-.11.19-.22.29-.33,1.95-2.23,3.87-4.49,5.76-6.76.14-.16.27-.32.41-.49,1.86-2.24,3.68-4.51,5.49-6.79.25-.31.5-.63.75-.94,1.75-2.22,3.46-4.46,5.16-6.72.28-.37.55-.73.83-1.1,1.68-2.26,3.34-4.53,4.97-6.82.25-.35.49-.69.73-1.04,1.66-2.35,3.3-4.71,4.9-7.1.15-.23.31-.46.46-.69,1.68-2.51,3.34-5.03,4.96-7.58,0,0,0,0,0,0,1.61-2.53,3.19-5.09,4.74-7.66.16-.27.32-.53.48-.8,1.47-2.45,2.92-4.92,4.33-7.41.21-.38.43-.75.64-1.13,1.39-2.45,2.75-4.91,4.08-7.39.21-.4.43-.8.64-1.2,1.33-2.5,2.64-5.01,3.92-7.55.17-.33.33-.66.5-1,1.32-2.63,2.62-5.27,3.88-7.93.06-.13.12-.26.18-.39,1.27-2.69,2.51-5.4,3.72-8.12.08-.17.15-.34.23-.51,1.18-2.67,2.33-5.36,3.46-8.06.15-.36.31-.73.46-1.09,1.08-2.62,2.13-5.25,3.15-7.89.17-.43.34-.87.5-1.3,1.01-2.63,1.99-5.27,2.94-7.93.15-.42.3-.84.45-1.26.96-2.71,1.9-5.43,2.81-8.16.1-.29.19-.59.29-.88.94-2.87,1.86-5.76,2.74-8.66,0,0,0,0,0-.01.88-2.89,1.71-5.8,2.52-8.71.09-.32.18-.63.27-.95.76-2.77,1.49-5.56,2.19-8.35.11-.45.23-.9.34-1.35.68-2.74,1.33-5.5,1.95-8.26.11-.48.21-.96.32-1.43.62-2.78,1.21-5.57,1.76-8.38.08-.41.16-.82.24-1.23.57-2.9,1.11-5.81,1.62-8.73.03-.2.07-.4.1-.59.5-2.93.97-5.88,1.41-8.83.03-.22.07-.43.1-.65.43-2.93.82-5.87,1.19-8.82.05-.42.11-.85.16-1.27.35-2.86.66-5.72.94-8.59.05-.5.1-1,.15-1.5.27-2.86.52-5.72.73-8.59.04-.48.07-.96.1-1.43.21-2.93.39-5.86.53-8.8.02-.34.03-.69.05-1.03.14-3.1.26-6.2.33-9.32.05-2.15.08-4.3.1-6.46,0-.68,0-1.36,0-2.04,0-1.49,0-2.97-.01-4.46,0-.78-.02-1.57-.03-2.35-.02-1.42-.05-2.84-.08-4.26-.02-.77-.04-1.54-.06-2.3-.05-1.56-.11-3.12-.17-4.67-.03-.6-.05-1.2-.07-1.8-.1-2.15-.22-4.29-.35-6.43-.02-.39-.06-.77-.08-1.16-.12-1.76-.24-3.51-.38-5.27-.06-.73-.12-1.46-.18-2.19-.12-1.43-.25-2.86-.38-4.29-.08-.79-.15-1.57-.23-2.36-.14-1.42-.3-2.84-.46-4.27-.06-.49-.1-.98-.16-1.48,29.99-10.8,60.73-19.21,91.94-25.15ZM1201.56,886.85c.01.35.04.7.05,1.04.01.4.02.79.04,1.19.08,2.69.14,5.38.16,8.07,0,.28,0,.56,0,.83,0,2.83-.01,5.66-.08,8.48-.06,2.64-.17,5.28-.29,7.91-.04.83-.09,1.65-.14,2.48-.1,1.83-.22,3.66-.35,5.48-.07.93-.14,1.85-.22,2.77-.15,1.8-.31,3.6-.49,5.39-.08.84-.16,1.68-.25,2.52-.25,2.36-.53,4.71-.84,7.06-.03.24-.06.48-.09.72-.34,2.58-.72,5.15-1.12,7.71-.12.77-.26,1.55-.39,2.32-.3,1.81-.61,3.62-.94,5.42-.16.9-.33,1.79-.51,2.68-.33,1.74-.69,3.48-1.05,5.21-.18.83-.35,1.66-.53,2.49-.47,2.14-.96,4.28-1.47,6.41-.09.38-.17.76-.27,1.14-.61,2.5-1.26,4.98-1.93,7.46-.19.71-.4,1.41-.6,2.12-.5,1.78-1.01,3.56-1.54,5.34-.26.86-.52,1.71-.78,2.57-.51,1.67-1.04,3.34-1.59,5-.27.81-.53,1.63-.8,2.44-.66,1.97-1.34,3.93-2.04,5.88-.16.46-.32.92-.49,1.38-.87,2.4-1.78,4.78-2.71,7.16-.25.63-.51,1.25-.76,1.88-.7,1.75-1.41,3.5-2.15,5.24-.34.81-.69,1.62-1.04,2.42-.69,1.6-1.39,3.18-2.11,4.77-.35.78-.71,1.57-1.07,2.35-.83,1.8-1.68,3.59-2.55,5.37-.25.51-.49,1.03-.74,1.54-1.12,2.28-2.28,4.54-3.46,6.79-.29.55-.59,1.09-.88,1.64-.91,1.7-1.83,3.4-2.77,5.08-.42.76-.86,1.52-1.29,2.27-.85,1.5-1.72,3-2.6,4.48-.44.75-.89,1.5-1.34,2.25-.99,1.63-1.99,3.25-3.01,4.87-.34.54-.68,1.09-1.02,1.64-1.36,2.13-2.75,4.25-4.17,6.35-.31.46-.63.92-.95,1.38-1.12,1.64-2.25,3.27-3.4,4.89-.5.71-1.01,1.41-1.52,2.11-1.01,1.39-2.03,2.78-3.07,4.15-.54.71-1.07,1.42-1.61,2.13-1.12,1.47-2.26,2.92-3.41,4.36-.44.56-.88,1.12-1.32,1.67-1.59,1.97-3.2,3.92-4.85,5.85-.32.37-.64.74-.96,1.11-1.08,1.25-2.17,2.49-3.26,3.73-17.59-37.56-37.61-74.01-59.79-108.85-1.48-2.38-2.96-4.77-4.47-7.14,42.6-40.42,89.73-74.22,140.8-101.01ZM1452.27,1287.27c-60.56,93.08-141.1,168.69-235.24,221.38-.53-43.83-3.94-87.68-10.18-130.83,1.9-1.31,3.78-2.64,5.66-3.97.31-.22.62-.43.92-.65,2.31-1.65,4.62-3.32,6.91-5,.76-.56,1.51-1.13,2.26-1.69,1.53-1.14,3.07-2.28,4.59-3.44.91-.69,1.81-1.39,2.72-2.09,1.36-1.04,2.71-2.09,4.06-3.14.96-.75,1.91-1.51,2.87-2.27,1.28-1.02,2.57-2.04,3.84-3.08.97-.79,1.94-1.58,2.9-2.37,1.25-1.03,2.5-2.06,3.74-3.1.96-.8,1.92-1.61,2.88-2.42,1.24-1.05,2.47-2.1,3.7-3.16.94-.81,1.89-1.63,2.83-2.44,1.24-1.08,2.48-2.18,3.71-3.27.91-.81,1.82-1.61,2.73-2.43,1.29-1.16,2.56-2.33,3.84-3.49.83-.76,1.67-1.52,2.5-2.29,1.5-1.39,2.98-2.79,4.46-4.19.59-.56,1.19-1.12,1.78-1.68,2.05-1.96,4.08-3.93,6.1-5.91.65-.64,1.28-1.28,1.92-1.92,1.39-1.38,2.77-2.76,4.15-4.15.81-.82,1.61-1.66,2.42-2.48,1.19-1.22,2.38-2.45,3.56-3.68.86-.9,1.71-1.8,2.56-2.7,1.12-1.19,2.24-2.37,3.35-3.57.87-.93,1.73-1.87,2.59-2.81,1.08-1.18,2.16-2.37,3.23-3.56.86-.96,1.72-1.92,2.57-2.88,1.06-1.19,2.12-2.39,3.17-3.6.84-.97,1.69-1.93,2.52-2.9,1.06-1.23,2.11-2.47,3.16-3.71.81-.96,1.62-1.91,2.42-2.87,1.09-1.3,2.17-2.62,3.25-3.93.74-.91,1.49-1.81,2.23-2.72,1.2-1.48,2.39-2.98,3.58-4.48.6-.76,1.21-1.51,1.81-2.27,1.76-2.24,3.51-4.49,5.24-6.76.42-.55.83-1.11,1.25-1.67,1.32-1.74,2.63-3.49,3.93-5.25.65-.89,1.3-1.78,1.95-2.67,1.05-1.44,2.11-2.88,3.15-4.34.7-.98,1.4-1.97,2.09-2.95.97-1.38,1.94-2.75,2.9-4.14.71-1.03,1.42-2.06,2.13-3.09.93-1.36,1.86-2.73,2.78-4.1.7-1.05,1.4-2.1,2.1-3.15.91-1.38,1.82-2.76,2.72-4.14.68-1.05,1.36-2.1,2.04-3.16.9-1.41,1.8-2.82,2.69-4.24.65-1.04,1.31-2.08,1.96-3.13.92-1.48,1.82-2.97,2.73-4.46.6-.99,1.21-1.98,1.8-2.97.99-1.65,1.97-3.32,2.94-4.98.49-.84.99-1.67,1.48-2.51,1.45-2.51,2.89-5.03,4.31-7.57,49.04-87.69,74.96-187.96,74.96-289.95,0-3-.03-6-.07-9-.01-.94-.04-1.87-.05-2.81-.04-2.1-.09-4.2-.15-6.29-.03-1.05-.07-2.11-.1-3.16-.07-2.09-.16-4.17-.25-6.25-.04-.95-.08-1.9-.13-2.84-.15-2.93-.31-5.86-.5-8.78,0-.06,0-.13-.01-.19-.19-2.98-.42-5.97-.66-8.95-.08-.94-.16-1.88-.24-2.82-.18-2.08-.36-4.16-.56-6.24-.1-1.05-.2-2.1-.31-3.15-.21-2.07-.43-4.15-.66-6.22-.1-.94-.2-1.87-.31-2.81-.34-2.92-.69-5.85-1.07-8.76,0-.04,0-.08-.01-.12,15.59-.86,31.25-1.13,46.84-.8,21.37.46,42.8,2.05,64.03,4.75,2.92,26.42,4.4,53.13,4.4,79.75,0,138.28-39.22,271.65-113.41,385.69Z"/>
      <path class="st1" d="M889.56,498.68c-58.8,0-115.16,13.68-167.5,40.67-49.87,25.71-94.5,63.38-129.08,108.95l-33.1,43.62,49.22,21.61c95.86,42.08,182.76,101.55,258.27,176.74l30.75,30.62,28.04-33.31c65.42-77.73,147.9-140.55,238.51-181.66l49.75-22.57-34.77-43.35c-72.03-89.81-177.77-141.32-290.09-141.32ZM893.18,800.04c-60.81-55.48-127.76-102.18-199.88-139.44,53.73-49.6,122.91-77.24,196.26-77.24s136.93,25.58,189.79,71.53c-68.52,38.03-131.72,87.28-186.17,145.16Z"/>
    </g>
  </g>
</svg>